<svg width="64" height="64" viewBox="0 0 64 64" fill="none" xmlns="http://www.w3.org/2000/svg">
<rect width="64" height="64" rx="32" fill="white" fill-opacity="0.1"/>
<g clip-path="url(#clip0_1511_82)">
<path d="M29.2892 45.239C28.7625 45.2315 28.2601 45.0162 27.8914 44.64L16.5896 33.3581C15.8067 32.5816 15.8015 31.3173 16.5781 30.5343C16.5819 30.5304 16.5858 30.5265 16.5896 30.5227L27.8915 19.2409C28.7291 18.5236 29.9896 18.6211 30.7069 19.4588C31.3471 20.2064 31.3471 21.3089 30.7069 22.0564L20.8229 31.9405L30.8068 41.8245C31.581 42.6033 31.581 43.8612 30.8068 44.64C30.4093 45.0466 29.8573 45.2645 29.2892 45.239Z" fill="white"/>
<path d="M46.0025 33.937H18.0476C16.9448 33.937 16.0508 33.043 16.0508 31.9402C16.0508 30.8374 16.9448 29.9434 18.0476 29.9434H46.0025C47.1053 29.9434 47.9993 30.8374 47.9993 31.9402C47.9993 33.043 47.1053 33.937 46.0025 33.937Z" fill="white"/>
</g>
<defs>
<clipPath id="clip0_1511_82">
<rect width="32" height="32" fill="white" transform="translate(16 16)"/>
</clipPath>
</defs>
</svg>
