<svg width="64" height="64" viewBox="0 0 64 64" fill="none" xmlns="http://www.w3.org/2000/svg">
<rect x="64" y="64" width="64" height="64" rx="32" transform="rotate(-180 64 64)" fill="white" fill-opacity="0.1"/>
<g clip-path="url(#clip0_1289_95)">
<path d="M34.7098 18.762C35.2366 18.7695 35.7389 18.9847 36.1076 19.361L47.4094 30.6428C48.1923 31.4194 48.1975 32.6837 47.4209 33.4667C47.4171 33.4706 47.4133 33.4745 47.4094 33.4783L36.1075 44.76C35.27 45.4774 34.0094 45.3799 33.2921 44.5422C32.6519 43.7946 32.6519 42.6921 33.2921 41.9446L43.1762 32.0605L33.1923 22.1765C32.4181 21.3976 32.4181 20.1398 33.1923 19.361C33.5898 18.9544 34.1417 18.7364 34.7098 18.762Z" fill="white"/>
<path d="M17.9965 30.0635L45.9514 30.0635C47.0542 30.0635 47.9482 30.9575 47.9482 32.0603C47.9482 33.1631 47.0542 34.0571 45.9514 34.0571L17.9965 34.0571C16.8937 34.0571 15.9997 33.1631 15.9997 32.0603C15.9997 30.9575 16.8937 30.0635 17.9965 30.0635Z" fill="white"/>
</g>
<defs>
<clipPath id="clip0_1289_95">
<rect width="32" height="32" fill="white" transform="translate(48 48) rotate(-180)"/>
</clipPath>
</defs>
</svg>
