<svg width="64" height="64" viewBox="0 0 64 64" fill="none" xmlns="http://www.w3.org/2000/svg">
<rect width="64" height="64" rx="32" fill="white" fill-opacity="0.1"/>
<g clip-path="url(#clip0_1289_94)">
<path d="M29.2902 45.238C28.7635 45.2305 28.2611 45.0153 27.8924 44.639L16.5906 33.3572C15.8077 32.5806 15.8025 31.3163 16.5791 30.5333C16.5829 30.5294 16.5867 30.5255 16.5906 30.5217L27.8925 19.2399C28.73 18.5226 29.9906 18.6201 30.7079 19.4578C31.3481 20.2054 31.3481 21.3079 30.7079 22.0554L20.8238 31.9395L30.8077 41.8235C31.5819 42.6024 31.5819 43.8602 30.8077 44.639C30.4102 45.0456 29.8583 45.2636 29.2902 45.238Z" fill="white"/>
<path d="M46.0035 33.9365H18.0486C16.9458 33.9365 16.0518 33.0425 16.0518 31.9397C16.0518 30.8369 16.9458 29.9429 18.0486 29.9429H46.0035C47.1063 29.9429 48.0003 30.8369 48.0003 31.9397C48.0003 33.0425 47.1063 33.9365 46.0035 33.9365Z" fill="white"/>
</g>
<defs>
<clipPath id="clip0_1289_94">
<rect width="32" height="32" fill="white" transform="translate(16 16)"/>
</clipPath>
</defs>
</svg>
