<?xml version="1.0" encoding="UTF-8"?> <svg xmlns="http://www.w3.org/2000/svg" width="48" height="48" viewBox="0 0 48 48" fill="none"><path d="M40.9782 7.0223C31.6138 -2.34012 16.3847 -2.34012 7.02027 7.0223C-2.34009 16.3847 -2.34009 31.6178 7.02027 40.9802C11.7025 45.6604 17.8513 47.9995 24.0003 47.9995C30.1492 47.9995 36.296 45.6604 40.9782 40.9802C50.3406 31.6179 50.3406 16.3847 40.9782 7.0223ZM33.9028 31.0756C34.6852 31.8579 34.6852 33.1225 33.9028 33.9049C33.5127 34.2951 33.0004 34.4912 32.4881 34.4912C31.9759 34.4912 31.4636 34.2951 31.0735 33.9049L24.0002 26.8295L16.9288 33.9028C16.5367 34.293 16.0244 34.4891 15.5142 34.4891C15.0019 34.4891 14.4896 34.293 14.0995 33.9028C13.3171 33.1205 13.3171 31.8539 14.0995 31.0735L21.1708 24.0002L14.0975 16.9269C13.3152 16.1446 13.3152 14.878 14.0975 14.0977C14.8779 13.3153 16.1444 13.3153 16.9268 14.0977L24.0001 21.1709L31.0734 14.0977C31.8557 13.3153 33.1203 13.3153 33.9027 14.0977C34.685 14.878 34.685 16.1446 33.9027 16.9269L26.8294 24.0002L33.9028 31.0756Z" fill="white"></path></svg> 