<svg width="32" height="32" viewBox="0 0 32 32" fill="none" xmlns="http://www.w3.org/2000/svg">
<rect width="32" height="32" rx="8" fill="white"/>
<g clip-path="url(#clip0_1425_80)">
<path d="M13.8118 8H9.21815C8.54642 8 8 8.54642 8 9.21815V13.8118C8 14.4835 8.54642 15.03 9.21815 15.03H13.8118C14.4835 15.03 15.03 14.4835 15.03 13.8118V9.21815C15.0298 8.54642 14.4835 8 13.8118 8Z" fill="black"/>
<path d="M22.7815 8H18.1879C17.5161 8 16.9697 8.54642 16.9697 9.21815V13.8118C16.9697 14.4835 17.5161 15.03 18.1879 15.03H22.7815C23.4533 15.03 23.9997 14.4835 23.9997 13.8118V9.21815C23.9997 8.54642 23.4533 8 22.7815 8Z" fill="black"/>
<path d="M13.8118 16.97H9.21815C8.54642 16.97 8 17.5164 8 18.1881V22.7818C8 23.4535 8.54642 23.9999 9.21815 23.9999H13.8118C14.4835 23.9999 15.03 23.4535 15.03 22.7818V18.1881C15.0298 17.5164 14.4835 16.97 13.8118 16.97Z" fill="black"/>
<path d="M22.7815 16.97H18.1879C17.5161 16.97 16.9697 17.5165 16.9697 18.1882V22.7818C16.9697 23.4536 17.5161 24 18.1879 24H22.7815C23.4533 23.9999 23.9997 23.4535 23.9997 22.7818V18.1881C23.9997 17.5164 23.4533 16.97 22.7815 16.97Z" fill="black"/>
</g>
<defs>
<clipPath id="clip0_1425_80">
<rect width="16" height="16" fill="white" transform="translate(8 8)"/>
</clipPath>
</defs>
</svg>
