<svg width="32" height="32" viewBox="0 0 32 32" fill="none" xmlns="http://www.w3.org/2000/svg">
<rect width="32" height="32" rx="8" fill="#1B1528"/>
<g clip-path="url(#clip0_1423_180)">
<path d="M9.51672 23.8998C9.12445 23.9226 8.73866 23.7922 8.44071 23.5361C7.8531 22.945 7.8531 21.9903 8.44071 21.3992L21.3075 8.53231C21.9187 7.96041 22.8777 7.9922 23.4496 8.60337C23.9668 9.15605 23.9969 10.0055 23.5202 10.5934L10.5776 23.5361C10.2835 23.7885 9.90386 23.9187 9.51672 23.8998Z" fill="white"/>
<path d="M22.3684 23.8998C21.9708 23.8981 21.5898 23.7403 21.3075 23.4603L8.44059 10.5934C7.89619 9.95765 7.97021 9.00091 8.60593 8.45647C9.17334 7.97057 10.0101 7.97057 10.5775 8.45647L23.5201 21.3234C24.1312 21.8954 24.1628 22.8545 23.5907 23.4655C23.5679 23.4898 23.5444 23.5133 23.5201 23.5361C23.2032 23.8117 22.7861 23.9434 22.3684 23.8998Z" fill="white"/>
</g>
<defs>
<clipPath id="clip0_1423_180">
<rect width="16" height="16" fill="white" transform="translate(8 8)"/>
</clipPath>
</defs>
</svg>
