<svg width="24" height="24" viewBox="0 0 24 24" fill="none" xmlns="http://www.w3.org/2000/svg">
<path d="M20.531 10.0713C20.5598 6.68756 17.6779 3.58559 14.1067 3.15665C14.0357 3.14823 13.9583 3.13541 13.8764 3.12184C13.6996 3.09255 13.5168 3.06244 13.3323 3.06244C12.6004 3.06244 12.4047 3.57658 12.3532 3.88321C12.3031 4.18135 12.3509 4.43171 12.495 4.62766C12.7374 4.95725 13.1639 5.01576 13.5064 5.06264C13.6068 5.0765 13.7016 5.0894 13.7809 5.10721C16.9894 5.82415 18.0698 6.95133 18.5978 10.1326C18.6107 10.2103 18.6165 10.3061 18.6227 10.4077C18.6457 10.788 18.6937 11.5792 19.5443 11.5792H19.5444C19.6152 11.5792 19.6913 11.573 19.7705 11.561C20.5626 11.4406 20.5378 10.7174 20.5258 10.3699C20.5225 10.2721 20.5193 10.1795 20.5275 10.1179C20.5298 10.1024 20.5309 10.0868 20.531 10.0713Z" fill="#674DB3"/>
<path d="M13.1245 1.91463C13.2196 1.92149 13.3095 1.92805 13.3844 1.93953C18.6532 2.74979 21.0762 5.24609 21.7477 10.556C21.7591 10.6463 21.7609 10.7564 21.7627 10.873C21.7694 11.2878 21.7832 12.1509 22.7101 12.1687L22.7388 12.169C23.0295 12.169 23.2607 12.0814 23.4261 11.9083C23.7146 11.6065 23.6945 11.1582 23.6783 10.7979C23.6743 10.7095 23.6705 10.6263 23.6715 10.5534C23.7385 5.12266 19.0376 0.198112 13.6118 0.0149814C13.5892 0.014236 13.5678 0.0154286 13.5461 0.0184845C13.5354 0.0200497 13.5157 0.0219876 13.4818 0.0219876C13.4277 0.0219876 13.3612 0.0172919 13.2906 0.0125217C13.2052 0.00670807 13.1085 0 13.0104 0C12.1463 0 11.9821 0.614161 11.961 0.980273C11.9126 1.82638 12.7311 1.88594 13.1245 1.91463Z" fill="#674DB3"/>
<path d="M21.4927 17.4188C21.3806 17.3333 21.2648 17.2447 21.1564 17.1574C20.5811 16.6944 19.9691 16.2677 19.3772 15.855C19.2544 15.7695 19.1316 15.6838 19.0092 15.598C18.251 15.0654 17.5694 14.8066 16.9254 14.8066C16.0581 14.8066 15.3019 15.2859 14.6777 16.2309C14.4012 16.6499 14.0657 16.8536 13.6523 16.8536C13.4078 16.8536 13.13 16.7838 12.8267 16.6461C10.3796 15.5364 8.6321 13.8349 7.63282 11.589C7.14977 10.5035 7.30636 9.79393 8.1565 9.21644C8.63926 8.88878 9.53784 8.2788 9.47419 7.1107C9.40211 5.78421 6.47531 1.79298 5.24214 1.33967C4.72003 1.14767 4.17146 1.14588 3.60872 1.33519C2.19108 1.81177 1.17377 2.64871 0.666488 3.75539C0.176277 4.82473 0.198413 6.08034 0.730513 7.38647C2.26875 11.1628 4.43143 14.4553 7.15871 17.1723C9.82823 19.832 13.1093 22.0106 16.9107 23.6474C17.2533 23.7949 17.6127 23.8753 17.8752 23.934C17.9646 23.9541 18.0418 23.9712 18.0981 23.9866C18.129 23.9951 18.1609 23.9996 18.1929 23.9999L18.2229 24.0001C18.2229 24.0001 18.2229 24.0001 18.2231 24.0001C20.011 24.0001 22.1578 22.3663 22.8171 20.5037C23.3948 18.8727 22.3401 18.0665 21.4927 17.4188Z" fill="#674DB3"/>
<path d="M13.9145 6.22837C13.6084 6.23613 12.9713 6.25193 12.7478 6.90075C12.6432 7.20395 12.6558 7.46721 12.7851 7.68321C12.9748 8.00012 13.3384 8.09724 13.6691 8.15053C14.8684 8.34298 15.4844 9.00619 15.6076 10.2375C15.6648 10.8116 16.0515 11.2125 16.5479 11.2125C16.5845 11.2125 16.6221 11.2104 16.6594 11.2058C17.2564 11.1348 17.5459 10.6962 17.5197 9.90224C17.5292 9.07364 17.0956 8.13295 16.3581 7.38365C15.618 6.63205 14.7259 6.20877 13.9145 6.22837Z" fill="#674DB3"/>
</svg>
